M48
; DRILL file {KiCad 8.0.6} date 2024-11-23T22:51:18-0700
; FORMAT={-:-/ absolute / inch / decimal}
; #@! TF.CreationDate,2024-11-23T22:51:18-07:00
; #@! TF.GenerationSoftware,Kicad,Pcbnew,8.0.6
; #@! TF.FileFunction,Plated,1,2,PTH
FMAT,2
INCH
; #@! TA.AperFunction,Plated,PTH,ComponentDrill
T1C0.0079
; #@! TA.AperFunction,Plated,PTH,ViaDrill
T2C0.0118
; #@! TA.AperFunction,Plated,PTH,ComponentDrill
T3C0.0236
; #@! TA.AperFunction,Plated,PTH,ComponentDrill
T4C0.0394
; #@! TA.AperFunction,Plated,PTH,ComponentDrill
T5C0.0512
%
G90
G05
T1
X4.0394Y-2.1224
X4.0394Y-2.1776
X4.0669Y-2.0949
X4.0669Y-2.15
X4.0669Y-2.2051
X4.0945Y-2.1224
X4.0945Y-2.1776
X4.122Y-2.0949
X4.122Y-2.15
X4.122Y-2.2051
X4.1496Y-2.1224
X4.1496Y-2.1776
T2
X2.3425Y-1.9811
X2.3425Y-2.1386
X2.4016Y-2.0736
X2.4016Y-2.1063
X2.7165Y-2.0866
X2.7756Y-2.1063
X2.9724Y-2.4409
X3.2283Y-2.9724
X3.2478Y-2.3031
X3.2478Y-2.3346
X3.3661Y-2.8937
X3.6024Y-2.8346
X3.7402Y-2.4409
X3.7402Y-2.5
X3.7598Y-2.7362
X3.7598Y-2.8583
X3.7598Y-2.9724
X3.8189Y-2.6378
X3.8976Y-3.0512
X3.9173Y-1.9685
X3.9173Y-2.0961
X3.9185Y-2.0472
X3.9764Y-3.0512
X4.0551Y-3.0906
X4.0551Y-3.4646
X4.1732Y-3.4449
X4.2323Y-2.4606
X4.2913Y-2.4606
X4.311Y-2.7756
X4.311Y-2.874
X4.311Y-3.3071
X4.3307Y-3.3661
X4.3307Y-3.4646
X4.3632Y-3.3002
X4.3701Y-2.2835
X4.3701Y-2.7165
X4.4094Y-3.3465
X4.4685Y-3.4646
X4.5079Y-2.7756
X4.6457Y-2.0866
X4.6457Y-3.1693
X4.6457Y-3.4055
X4.7244Y-2.874
X4.7244Y-3.1693
X4.7638Y-2.1063
X4.7835Y-2.874
X4.8031Y-4.311
X4.8228Y-3.189
X4.8622Y-3.0315
X4.8622Y-4.2913
X4.9016Y-2.0276
X4.9016Y-2.0866
X4.9016Y-2.2047
X4.9016Y-2.2598
X5.0984Y-2.8346
X5.1181Y-3.0512
X5.1575Y-2.815
X5.1575Y-3.3858
X5.1969Y-2.7953
X5.2165Y-3.2283
X5.2559Y-2.7953
X5.2559Y-3.2283
X5.5974Y-4.2323
X5.8071Y-2.9528
X5.9449Y-3.0906
X6.1289Y-4.2913
X6.2402Y-3.0709
X6.2402Y-4.2323
X6.3189Y-3.2874
X6.3976Y-3.2874
X6.6339Y-4.315
X6.7126Y-4.1535
X6.7126Y-4.3898
X7.3622Y-3.8037
T4
X2.3819Y-3.4252
X2.3819Y-3.5252
X2.3819Y-3.6252
X2.5144Y-2.646
X2.6144Y-2.646
X2.7144Y-2.646
X2.7165Y-3.4252
X2.7165Y-3.5252
X2.7165Y-3.6252
X3.1714Y-2.646
X3.2714Y-2.646
X3.3661Y-3.4252
X3.3661Y-3.5252
X3.3661Y-3.6252
X3.3714Y-2.646
X3.7008Y-3.4252
X3.7008Y-3.5252
X3.7008Y-3.6252
X5.1378Y-4.0354
X5.2378Y-4.0354
X5.3378Y-4.0354
X5.4378Y-4.0354
X5.6693Y-4.0354
X5.7693Y-4.0354
X5.8693Y-4.0354
X5.9693Y-4.0354
X6.0693Y-4.0354
X6.3583Y-4.0354
X6.4583Y-4.0354
X6.5583Y-4.0354
X6.6583Y-4.0354
X6.8701Y-4.0354
X6.9701Y-4.0354
X7.0701Y-4.0354
X7.1701Y-4.0354
X7.2701Y-4.0354
T5
X2.0669Y-2.4803
X2.0669Y-2.6772
X5.5118Y-2.4803
X5.5118Y-3.0811
X5.5118Y-3.2795
X5.5118Y-3.478
X5.6594Y-2.4803
X5.8071Y-2.4803
X5.8071Y-3.0811
X5.8071Y-3.2795
X5.8071Y-3.478
X6.6634Y-2.5335
X6.6634Y-3.1343
X6.6634Y-3.3327
X6.6634Y-3.5311
X6.811Y-2.5335
X6.9587Y-2.5335
X6.9587Y-3.1343
X6.9587Y-3.3327
X6.9587Y-3.5311
T3
G00X2.0797Y-1.8898
M15
G01X2.0482Y-1.8898
M16
G05
G00X2.0797Y-2.2299
M15
G01X2.0482Y-2.2299
M16
G05
G00X2.2502Y-1.8898
M15
G01X2.2069Y-1.8898
M16
G05
G00X2.2502Y-2.2299
M15
G01X2.2069Y-2.2299
M16
G05
M30
