%TF.GenerationSoftware,KiCad,Pcbnew,10.0.3*%
%TF.CreationDate,2026-05-24T17:48:58-06:00*%
%TF.ProjectId,Esp32 relay,45737033-3220-4726-956c-61792e6b6963,rev?*%
%TF.SameCoordinates,Original*%
%TF.FileFunction,Profile,NP*%
%FSLAX46Y46*%
G04 Gerber Fmt 4.6, Leading zero omitted, Abs format (unit mm)*
G04 Created by KiCad (PCBNEW 10.0.3) date 2026-05-24 17:48:58*
%MOMM*%
%LPD*%
G01*
G04 APERTURE LIST*
%TA.AperFunction,Profile*%
%ADD10C,0.050000*%
%TD*%
G04 APERTURE END LIST*
D10*
X50500000Y-45000000D02*
X50500000Y-114000000D01*
X50500000Y-114000000D02*
X55000000Y-114000000D01*
X50500000Y-115000000D02*
X50500000Y-125000000D01*
X50500000Y-125000000D02*
X50500000Y-131000000D01*
X55000000Y-114000000D02*
G75*
G02*
X55000000Y-115000000I0J-500000D01*
G01*
X55000000Y-115000000D02*
X50500000Y-115000000D01*
X60000000Y-114000000D02*
X80000000Y-114000000D01*
X60000000Y-115000000D02*
G75*
G02*
X60000000Y-114000000I0J500000D01*
G01*
X80000000Y-114000000D02*
X85000000Y-114000000D01*
X80000000Y-115000000D02*
X60000000Y-115000000D01*
X85000000Y-115000000D02*
X80000000Y-115000000D01*
X85000000Y-115000000D02*
X105000000Y-115000000D01*
X105000000Y-114000000D02*
X85000000Y-114000000D01*
X105000000Y-114000000D02*
G75*
G02*
X105000000Y-115000000I0J-500000D01*
G01*
X110000000Y-114000000D02*
X130000000Y-114000000D01*
X110000000Y-115000000D02*
G75*
G02*
X110000000Y-114000000I0J500000D01*
G01*
X130000000Y-114000000D02*
G75*
G02*
X130000000Y-115000000I0J-500000D01*
G01*
X130000000Y-115000000D02*
X110000000Y-115000000D01*
X135000000Y-115000000D02*
G75*
G02*
X135000000Y-114000000I0J500000D01*
G01*
X135000000Y-115000000D02*
X155000000Y-115000000D01*
X155000000Y-114000000D02*
X135000000Y-114000000D01*
X155000000Y-114000000D02*
X160000000Y-114000000D01*
X160000000Y-115000000D02*
X155000000Y-115000000D01*
X160000000Y-115000000D02*
X180000000Y-115000000D01*
X180000000Y-114000000D02*
X160000000Y-114000000D01*
X180000000Y-114000000D02*
G75*
G02*
X180000000Y-115000000I0J-500000D01*
G01*
X185000000Y-115000000D02*
G75*
G02*
X185000000Y-114000000I0J500000D01*
G01*
X185000000Y-115000000D02*
X188000000Y-115000000D01*
X188000000Y-45000000D02*
X50500000Y-45000000D01*
X188000000Y-114000000D02*
X185000000Y-114000000D01*
X188000000Y-114000000D02*
X188000000Y-45000000D01*
X188000000Y-115000000D02*
X188000000Y-131000000D01*
X188000000Y-131000000D02*
X50500000Y-131000000D01*
M02*
