M48
; DRILL file KiCad 10.0.3 date 2026-05-24T17:48:33
; FORMAT={-:-/ absolute / metric / decimal}
; #@! TF.CreationDate,2026-05-24T17:48:33-06:00
; #@! TF.GenerationSoftware,Kicad,Pcbnew,10.0.3
; #@! TF.FileFunction,NonPlated,1,2,NPTH
FMAT,2
METRIC
; #@! TA.AperFunction,NonPlated,NPTH,ComponentDrill
T1C0.380
; #@! TA.AperFunction,NonPlated,NPTH,ComponentDrill
T2C0.650
; #@! TA.AperFunction,NonPlated,NPTH,ComponentDrill
T3C3.200
%
G90
G05
T1
X55.25Y-114.0
X55.25Y-115.0
X56.0Y-114.0
X56.0Y-115.0
X56.75Y-114.0
X56.75Y-115.0
X57.5Y-114.0
X57.5Y-115.0
X58.25Y-114.0
X58.25Y-115.0
X59.0Y-114.0
X59.0Y-115.0
X59.75Y-114.0
X59.75Y-115.0
X105.25Y-114.0
X105.25Y-115.0
X106.0Y-114.0
X106.0Y-115.0
X106.75Y-114.0
X106.75Y-115.0
X107.5Y-114.0
X107.5Y-115.0
X108.25Y-114.0
X108.25Y-115.0
X109.0Y-114.0
X109.0Y-115.0
X109.75Y-114.0
X109.75Y-115.0
X130.25Y-114.0
X130.25Y-115.0
X131.0Y-114.0
X131.0Y-115.0
X131.75Y-114.0
X131.75Y-115.0
X132.5Y-114.0
X132.5Y-115.0
X133.25Y-114.0
X133.25Y-115.0
X134.0Y-114.0
X134.0Y-115.0
X134.75Y-114.0
X134.75Y-115.0
X180.25Y-114.0
X180.25Y-115.0
X181.0Y-114.0
X181.0Y-115.0
X181.75Y-114.0
X181.75Y-115.0
X182.5Y-114.0
X182.5Y-115.0
X183.25Y-114.0
X183.25Y-115.0
X184.0Y-114.0
X184.0Y-115.0
X184.75Y-114.0
X184.75Y-115.0
T2
X56.105Y-49.43
X56.105Y-55.21
T3
X70.0Y-127.0
X79.5Y-50.0
X79.5Y-91.0
X95.5Y-127.0
X112.75Y-127.0
X145.0Y-127.0
X156.5Y-91.0
X170.5Y-127.0
X184.0Y-50.0
X184.0Y-91.0
M30
