M48
; DRILL file KiCad 10.0.3 date 2026-05-24T17:48:33
; FORMAT={-:-/ absolute / metric / decimal}
; #@! TF.CreationDate,2026-05-24T17:48:33-06:00
; #@! TF.GenerationSoftware,Kicad,Pcbnew,10.0.3
; #@! TF.FileFunction,Plated,1,2,PTH
FMAT,2
METRIC
; #@! TA.AperFunction,Plated,PTH,ComponentDrill
T1C0.200
; #@! TA.AperFunction,Plated,PTH,ViaDrill
T2C0.300
; #@! TA.AperFunction,Plated,PTH,ViaDrill
T3C0.500
; #@! TA.AperFunction,Plated,PTH,ComponentDrill
T4C0.600
; #@! TA.AperFunction,Plated,PTH,ComponentDrill
T5C1.000
; #@! TA.AperFunction,Plated,PTH,ComponentDrill
T6C1.300
; #@! TA.AperFunction,Plated,PTH,ComponentDrill
T7C1.420
%
G90
G05
T1
X102.6Y-53.91
X102.6Y-55.31
X103.3Y-53.21
X103.3Y-54.61
X103.3Y-56.01
X104.0Y-53.91
X104.0Y-55.31
X104.7Y-53.21
X104.7Y-54.61
X104.7Y-56.01
X105.4Y-53.91
X105.4Y-55.31
T2
X54.25Y-130.0
X60.25Y-80.5
X61.0Y-53.5
X63.25Y-54.0
X65.5Y-50.97
X65.5Y-52.25
X67.5Y-54.0
X68.0Y-51.5
X71.0Y-53.0
X73.5Y-52.5
X75.5Y-62.0
X82.493Y-58.5
X82.493Y-59.3
X84.5Y-53.75
X87.5Y-53.75
X87.75Y-64.5
X93.75Y-54.75
X95.0Y-62.0
X95.0Y-63.5
X95.5Y-69.5
X95.5Y-72.6
X95.5Y-75.5
X96.5Y-77.9
X97.0Y-67.0
X97.0Y-81.25
X99.0Y-77.5
X99.5Y-50.0
X99.5Y-53.24
X99.53Y-52.0
X99.58Y-86.5
X101.0Y-77.5
X101.0Y-80.5
X103.0Y-78.5
X103.0Y-88.0
X103.0Y-94.0
X104.75Y-102.25
X106.0Y-87.5
X106.5Y-94.0
X107.5Y-62.5
X107.5Y-70.75
X107.544Y-72.277
X109.0Y-62.5
X109.5Y-84.0
X110.0Y-85.5
X110.0Y-88.0
X110.0Y-95.0
X110.549Y-107.299
X110.615Y-66.5
X110.826Y-83.826
X111.0Y-58.0
X112.0Y-85.0
X112.5Y-67.25
X113.5Y-88.0
X113.5Y-95.5
X116.5Y-54.5
X116.5Y-61.25
X117.0Y-81.4
X117.25Y-53.75
X117.5Y-55.25
X118.0Y-53.0
X118.0Y-69.0
X118.0Y-86.5
X118.75Y-56.75
X118.875Y-81.625
X119.0Y-107.4
X120.0Y-73.0
X120.0Y-108.6
X121.0Y-53.5
X121.5Y-73.0
X122.5Y-81.5
X123.5Y-56.75
X123.5Y-77.0
X124.25Y-62.75
X124.5Y-51.5
X124.5Y-53.0
X124.5Y-56.0
X124.5Y-57.4
X124.555Y-69.0
X129.5Y-72.0
X130.0Y-53.75
X130.0Y-77.5
X130.75Y-54.5
X131.0Y-71.5
X131.0Y-86.0
X131.5Y-55.25
X132.0Y-71.0
X132.0Y-98.25
X132.25Y-94.0
X132.5Y-82.0
X132.75Y-56.75
X133.5Y-71.0
X133.5Y-82.0
X134.75Y-56.75
X137.0Y-53.75
X139.5Y-54.5
X142.25Y-91.5
X142.75Y-55.0
X143.5Y-99.45
X147.0Y-92.25
X147.0Y-98.5
X149.25Y-54.5
X156.5Y-77.75
X157.5Y-82.5
X158.5Y-78.0
X160.5Y-83.5
X162.1Y-90.0
X162.5Y-83.5
X165.25Y-89.25
X170.71Y-100.54
X171.5Y-92.1
X174.5Y-93.75
X176.5Y-103.25
X176.5Y-106.1
X177.04Y-100.0
X177.75Y-104.05
X177.75Y-106.0
T3
X59.5Y-50.32
X59.5Y-54.32
X70.5Y-82.0
X70.5Y-86.75
X71.5Y-76.75
X82.0Y-77.75
X85.633Y-73.367
X91.5Y-72.0
X138.12Y-100.0
X143.25Y-105.0
X147.5Y-75.0
X151.0Y-78.5
X163.5Y-100.25
T5
X63.867Y-67.207
X66.407Y-67.207
X68.947Y-67.207
X80.553Y-67.207
X83.093Y-67.207
X85.633Y-67.207
X100.75Y-68.67
X103.29Y-68.67
X105.83Y-68.67
X108.37Y-68.67
X138.195Y-49.025
X140.735Y-49.025
X143.275Y-49.025
T6
X52.5Y-63.0
X52.5Y-68.0
X53.0Y-122.0
X53.0Y-127.0
X54.0Y-84.25
X54.0Y-89.25
X54.0Y-94.25
X54.0Y-99.5
X54.0Y-104.5
X54.0Y-109.5
X63.0Y-119.0
X65.75Y-110.5
X68.0Y-119.0
X70.75Y-110.5
X75.75Y-110.5
X81.0Y-110.5
X86.0Y-110.5
X89.5Y-119.0
X91.0Y-110.5
X94.5Y-119.0
X98.5Y-110.5
X103.5Y-110.5
X108.5Y-110.5
X113.5Y-110.5
X118.5Y-110.5
X123.5Y-110.5
X128.5Y-110.5
X133.5Y-110.5
X137.0Y-119.0
X138.5Y-110.5
X140.0Y-63.0
X140.0Y-78.26
X140.0Y-83.3
X140.0Y-88.34
X142.0Y-119.0
X143.5Y-110.5
X143.75Y-63.0
X147.5Y-63.0
X147.5Y-78.26
X147.5Y-83.3
X147.5Y-88.34
X148.5Y-110.5
X153.5Y-110.5
X158.5Y-110.5
X163.5Y-110.5
X164.5Y-119.0
X168.5Y-110.5
X169.0Y-63.0
X169.0Y-78.26
X169.0Y-83.3
X169.0Y-88.34
X169.5Y-119.0
X172.75Y-63.0
X173.5Y-110.5
X176.5Y-63.0
X176.5Y-78.26
X176.5Y-83.3
X176.5Y-88.34
X178.5Y-110.5
X183.5Y-110.5
T7
X75.87Y-118.5
X75.87Y-123.2
X75.87Y-127.9
X80.7Y-118.5
X80.7Y-123.2
X80.7Y-127.9
X101.87Y-118.5
X101.87Y-123.2
X101.87Y-127.9
X106.7Y-118.5
X106.7Y-123.2
X106.7Y-127.9
X150.87Y-118.5
X150.87Y-123.2
X150.87Y-127.9
X155.7Y-118.5
X155.7Y-123.2
X155.7Y-127.9
X176.87Y-118.6
X176.87Y-123.3
X176.87Y-128.0
X181.7Y-118.6
X181.7Y-123.3
X181.7Y-128.0
T4
G00X52.825Y-48.0
M15
G01X52.025Y-48.0
M16
G05
G00X52.825Y-56.64
M15
G01X52.025Y-56.64
M16
G05
G00X57.155Y-48.0
M15
G01X56.055Y-48.0
M16
G05
G00X57.155Y-56.64
M15
G01X56.055Y-56.64
M16
G05
M30
