%TF.GenerationSoftware,KiCad,Pcbnew,10.0.3*%
%TF.CreationDate,2026-05-24T17:48:57-06:00*%
%TF.ProjectId,Esp32 relay,45737033-3220-4726-956c-61792e6b6963,rev?*%
%TF.SameCoordinates,Original*%
%TF.FileFunction,Paste,Top*%
%TF.FilePolarity,Positive*%
%FSLAX46Y46*%
G04 Gerber Fmt 4.6, Leading zero omitted, Abs format (unit mm)*
G04 Created by KiCad (PCBNEW 10.0.3) date 2026-05-24 17:48:57*
%MOMM*%
%LPD*%
G01*
G04 APERTURE LIST*
G04 Aperture macros list*
%AMRoundRect*
0 Rectangle with rounded corners*
0 $1 Rounding radius*
0 $2 $3 $4 $5 $6 $7 $8 $9 X,Y pos of 4 corners*
0 Add a 4 corners polygon primitive as box body*
4,1,4,$2,$3,$4,$5,$6,$7,$8,$9,$2,$3,0*
0 Add four circle primitives for the rounded corners*
1,1,$1+$1,$2,$3*
1,1,$1+$1,$4,$5*
1,1,$1+$1,$6,$7*
1,1,$1+$1,$8,$9*
0 Add four rect primitives between the rounded corners*
20,1,$1+$1,$2,$3,$4,$5,0*
20,1,$1+$1,$4,$5,$6,$7,0*
20,1,$1+$1,$6,$7,$8,$9,0*
20,1,$1+$1,$8,$9,$2,$3,0*%
G04 Aperture macros list end*
%ADD10C,0.100000*%
%ADD11R,2.500000X1.700000*%
%ADD12RoundRect,0.225000X0.225000X0.250000X-0.225000X0.250000X-0.225000X-0.250000X0.225000X-0.250000X0*%
%ADD13RoundRect,0.250000X-0.450000X0.262500X-0.450000X-0.262500X0.450000X-0.262500X0.450000X0.262500X0*%
%ADD14RoundRect,0.342308X-0.547692X-1.407692X0.547692X-1.407692X0.547692X1.407692X-0.547692X1.407692X0*%
%ADD15RoundRect,0.250000X-0.250000X0.250000X-0.250000X-0.250000X0.250000X-0.250000X0.250000X0.250000X0*%
%ADD16RoundRect,0.218750X-0.218750X-0.256250X0.218750X-0.256250X0.218750X0.256250X-0.218750X0.256250X0*%
%ADD17RoundRect,0.225000X-0.250000X0.225000X-0.250000X-0.225000X0.250000X-0.225000X0.250000X0.225000X0*%
%ADD18RoundRect,0.225000X0.250000X-0.225000X0.250000X0.225000X-0.250000X0.225000X-0.250000X-0.225000X0*%
%ADD19RoundRect,0.250000X0.450000X-0.262500X0.450000X0.262500X-0.450000X0.262500X-0.450000X-0.262500X0*%
%ADD20RoundRect,0.075000X-0.225000X0.910000X-0.225000X-0.910000X0.225000X-0.910000X0.225000X0.910000X0*%
%ADD21RoundRect,0.218750X-0.256250X0.218750X-0.256250X-0.218750X0.256250X-0.218750X0.256250X0.218750X0*%
%ADD22R,0.900000X0.900000*%
%ADD23R,1.500000X0.900000*%
%ADD24R,0.900000X1.500000*%
%ADD25RoundRect,0.250000X0.250000X-0.250000X0.250000X0.250000X-0.250000X0.250000X-0.250000X-0.250000X0*%
%ADD26RoundRect,0.250000X-0.262500X-0.450000X0.262500X-0.450000X0.262500X0.450000X-0.262500X0.450000X0*%
%ADD27RoundRect,0.250000X-1.450000X0.400000X-1.450000X-0.400000X1.450000X-0.400000X1.450000X0.400000X0*%
%ADD28RoundRect,0.150000X-0.425000X0.150000X-0.425000X-0.150000X0.425000X-0.150000X0.425000X0.150000X0*%
%ADD29RoundRect,0.075000X-0.500000X0.075000X-0.500000X-0.075000X0.500000X-0.075000X0.500000X0.075000X0*%
%ADD30O,2.100000X1.000000*%
%ADD31O,1.800000X1.000000*%
%ADD32RoundRect,0.250000X0.262500X0.450000X-0.262500X0.450000X-0.262500X-0.450000X0.262500X-0.450000X0*%
%ADD33RoundRect,0.225000X-0.225000X-0.250000X0.225000X-0.250000X0.225000X0.250000X-0.225000X0.250000X0*%
G04 APERTURE END LIST*
%TO.C,D6*%
D10*
X59425000Y-56440000D02*
X60575000Y-56440000D01*
X60575000Y-57560000D01*
X59425000Y-57560000D01*
X59425000Y-56440000D01*
G36*
X59425000Y-56440000D02*
G01*
X60575000Y-56440000D01*
X60575000Y-57560000D01*
X59425000Y-57560000D01*
X59425000Y-56440000D01*
G37*
X62375000Y-56440000D02*
X63525000Y-56440000D01*
X63525000Y-57560000D01*
X62375000Y-57560000D01*
X62375000Y-56440000D01*
G36*
X62375000Y-56440000D02*
G01*
X63525000Y-56440000D01*
X63525000Y-57560000D01*
X62375000Y-57560000D01*
X62375000Y-56440000D01*
G37*
%TO.C,D5*%
X54950000Y-72940000D02*
X56100000Y-72940000D01*
X56100000Y-74060000D01*
X54950000Y-74060000D01*
X54950000Y-72940000D01*
G36*
X54950000Y-72940000D02*
G01*
X56100000Y-72940000D01*
X56100000Y-74060000D01*
X54950000Y-74060000D01*
X54950000Y-72940000D01*
G37*
X57900000Y-72940000D02*
X59050000Y-72940000D01*
X59050000Y-74060000D01*
X57900000Y-74060000D01*
X57900000Y-72940000D01*
G36*
X57900000Y-72940000D02*
G01*
X59050000Y-72940000D01*
X59050000Y-74060000D01*
X57900000Y-74060000D01*
X57900000Y-72940000D01*
G37*
%TD*%
D11*
%TO.C,SW5*%
X126570000Y-63500000D03*
X117930000Y-63500000D03*
%TD*%
D12*
%TO.C,C8*%
X84550000Y-70500000D03*
X83000000Y-70500000D03*
%TD*%
D13*
%TO.C,R20*%
X91250000Y-55500000D03*
X91250000Y-57325000D03*
%TD*%
%TO.C,R5*%
X104500000Y-86500000D03*
X104500000Y-88325000D03*
%TD*%
D14*
%TO.C,F1*%
X65520000Y-57000000D03*
X70750000Y-57000000D03*
%TD*%
D15*
%TO.C,D10*%
X74750000Y-48500000D03*
X74750000Y-51000000D03*
%TD*%
D16*
%TO.C,D7*%
X70425000Y-71500000D03*
X72000000Y-71500000D03*
%TD*%
D17*
%TO.C,C3*%
X122000000Y-50950000D03*
X122000000Y-52500000D03*
%TD*%
D18*
%TO.C,C7*%
X75500000Y-65550000D03*
X75500000Y-64000000D03*
%TD*%
D19*
%TO.C,R9*%
X70750000Y-99075000D03*
X70750000Y-97250000D03*
%TD*%
D13*
%TO.C,R3*%
X108000000Y-86500000D03*
X108000000Y-88325000D03*
%TD*%
%TO.C,R16*%
X111500000Y-91000000D03*
X111500000Y-92825000D03*
%TD*%
D19*
%TO.C,R17*%
X63500000Y-50412500D03*
X63500000Y-48587500D03*
%TD*%
D20*
%TO.C,U4*%
X133445000Y-74525000D03*
X132175000Y-74525000D03*
X130905000Y-74525000D03*
X129635000Y-74525000D03*
X128365000Y-74525000D03*
X127095000Y-74525000D03*
X125825000Y-74525000D03*
X124555000Y-74525000D03*
X124555000Y-79475000D03*
X125825000Y-79475000D03*
X127095000Y-79475000D03*
X128365000Y-79475000D03*
X129635000Y-79475000D03*
X130905000Y-79475000D03*
X132175000Y-79475000D03*
X133445000Y-79475000D03*
%TD*%
D12*
%TO.C,C2*%
X97050000Y-76975000D03*
X95500000Y-76975000D03*
%TD*%
D11*
%TO.C,SW6*%
X85180000Y-50750000D03*
X93820000Y-50750000D03*
%TD*%
D18*
%TO.C,C9*%
X73500000Y-65550000D03*
X73500000Y-64000000D03*
%TD*%
D12*
%TO.C,C1*%
X97050000Y-74000000D03*
X95500000Y-74000000D03*
%TD*%
%TO.C,C14*%
X89250000Y-55500000D03*
X87700000Y-55500000D03*
%TD*%
D21*
%TO.C,D4*%
X149000000Y-100962500D03*
X149000000Y-102537500D03*
%TD*%
D13*
%TO.C,R6*%
X104500000Y-91000000D03*
X104500000Y-92825000D03*
%TD*%
D22*
%TO.C,U6*%
X102600000Y-53210000D03*
X102600000Y-54610000D03*
X102600000Y-56010000D03*
X104000000Y-53210000D03*
X104000000Y-54610000D03*
X104000000Y-56010000D03*
X105400000Y-53210000D03*
X105400000Y-54610000D03*
X105400000Y-56010000D03*
D23*
X96750000Y-46890000D03*
X96750000Y-48160000D03*
X96750000Y-49430000D03*
X96750000Y-50700000D03*
X96750000Y-51970000D03*
X96750000Y-53240000D03*
X96750000Y-54510000D03*
X96750000Y-55780000D03*
X96750000Y-57050000D03*
X96750000Y-58320000D03*
X96750000Y-59590000D03*
X96750000Y-60860000D03*
X96750000Y-62130000D03*
X96750000Y-63400000D03*
D24*
X98515000Y-64650000D03*
X99785000Y-64650000D03*
X101055000Y-64650000D03*
X102325000Y-64650000D03*
X103595000Y-64650000D03*
X104865000Y-64650000D03*
X106135000Y-64650000D03*
X107405000Y-64650000D03*
X108675000Y-64650000D03*
X109945000Y-64650000D03*
X111215000Y-64650000D03*
X112485000Y-64650000D03*
D23*
X114250000Y-63400000D03*
X114250000Y-62130000D03*
X114250000Y-60860000D03*
X114250000Y-59590000D03*
X114250000Y-58320000D03*
X114250000Y-57050000D03*
X114250000Y-55780000D03*
X114250000Y-54510000D03*
X114250000Y-53240000D03*
X114250000Y-51970000D03*
X114250000Y-50700000D03*
X114250000Y-49430000D03*
X114250000Y-48160000D03*
X114250000Y-46890000D03*
%TD*%
D25*
%TO.C,D11*%
X88500000Y-99250000D03*
X88500000Y-96750000D03*
%TD*%
D26*
%TO.C,R12*%
X145175000Y-100250000D03*
X147000000Y-100250000D03*
%TD*%
D27*
%TO.C,F5*%
X150750000Y-92525000D03*
X150750000Y-96975000D03*
%TD*%
%TO.C,F3*%
X177750000Y-94025000D03*
X177750000Y-98475000D03*
%TD*%
D26*
%TO.C,R19*%
X66675000Y-71500000D03*
X68500000Y-71500000D03*
%TD*%
D12*
%TO.C,C5*%
X97050000Y-71000000D03*
X95500000Y-71000000D03*
%TD*%
D27*
%TO.C,F4*%
X143500000Y-93250000D03*
X143500000Y-97700000D03*
%TD*%
D17*
%TO.C,C12*%
X118000000Y-65750000D03*
X118000000Y-67300000D03*
%TD*%
D13*
%TO.C,R13*%
X115000000Y-86500000D03*
X115000000Y-88325000D03*
%TD*%
D19*
%TO.C,R7*%
X86000000Y-98912500D03*
X86000000Y-97087500D03*
%TD*%
D21*
%TO.C,D2*%
X103250000Y-100712500D03*
X103250000Y-102287500D03*
%TD*%
D17*
%TO.C,C4*%
X122000000Y-47500000D03*
X122000000Y-49050000D03*
%TD*%
D13*
%TO.C,R8*%
X91000000Y-97000000D03*
X91000000Y-98825000D03*
%TD*%
D28*
%TO.C,J4*%
X57180000Y-49120000D03*
X57180000Y-49920000D03*
D29*
X57180000Y-51070000D03*
X57180000Y-52070000D03*
X57180000Y-52570000D03*
X57180000Y-53570000D03*
D28*
X57180000Y-54720000D03*
X57180000Y-55520000D03*
X57180000Y-55520000D03*
X57180000Y-54720000D03*
D29*
X57180000Y-54070000D03*
X57180000Y-53070000D03*
X57180000Y-51570000D03*
X57180000Y-50570000D03*
D28*
X57180000Y-49920000D03*
X57180000Y-49120000D03*
D30*
X56605000Y-48000000D03*
D31*
X52425000Y-48000000D03*
D30*
X56605000Y-56640000D03*
D31*
X52425000Y-56640000D03*
%TD*%
D13*
%TO.C,R4*%
X108000000Y-91000000D03*
X108000000Y-92825000D03*
%TD*%
D21*
%TO.C,D1*%
X106500000Y-100750000D03*
X106500000Y-102325000D03*
%TD*%
D19*
%TO.C,R18*%
X67000000Y-50500000D03*
X67000000Y-48675000D03*
%TD*%
D13*
%TO.C,R10*%
X75750000Y-97250000D03*
X75750000Y-99075000D03*
%TD*%
%TO.C,R1*%
X106500000Y-95000000D03*
X106500000Y-96825000D03*
%TD*%
D18*
%TO.C,C11*%
X62000000Y-73500000D03*
X62000000Y-71950000D03*
%TD*%
D13*
%TO.C,R15*%
X111500000Y-86500000D03*
X111500000Y-88325000D03*
%TD*%
D12*
%TO.C,C10*%
X84500000Y-72500000D03*
X82950000Y-72500000D03*
%TD*%
%TO.C,C13*%
X91300000Y-53750000D03*
X89750000Y-53750000D03*
%TD*%
D32*
%TO.C,R11*%
X156325000Y-100250000D03*
X154500000Y-100250000D03*
%TD*%
D13*
%TO.C,R2*%
X103000000Y-95000000D03*
X103000000Y-96825000D03*
%TD*%
%TO.C,R14*%
X115000000Y-91000000D03*
X115000000Y-92825000D03*
%TD*%
D25*
%TO.C,D12*%
X73250000Y-99500000D03*
X73250000Y-97000000D03*
%TD*%
D33*
%TO.C,C6*%
X95500000Y-68000000D03*
X97050000Y-68000000D03*
%TD*%
D21*
%TO.C,D3*%
X152000000Y-100962500D03*
X152000000Y-102537500D03*
%TD*%
D27*
%TO.C,F2*%
X171025000Y-93525000D03*
X171025000Y-97975000D03*
%TD*%
D15*
%TO.C,D9*%
X72250000Y-48500000D03*
X72250000Y-51000000D03*
%TD*%
%TO.C,D8*%
X69750000Y-48500000D03*
X69750000Y-51000000D03*
%TD*%
D20*
%TO.C,U1*%
X161850000Y-75025000D03*
X160580000Y-75025000D03*
X159310000Y-75025000D03*
X158040000Y-75025000D03*
X156770000Y-75025000D03*
X155500000Y-75025000D03*
X154230000Y-75025000D03*
X152960000Y-75025000D03*
X152960000Y-79975000D03*
X154230000Y-79975000D03*
X155500000Y-79975000D03*
X156770000Y-79975000D03*
X158040000Y-79975000D03*
X159310000Y-79975000D03*
X160580000Y-79975000D03*
X161850000Y-79975000D03*
%TD*%
M02*
